<?xml version="1.0" encoding="UTF-8"?>
<svg id="Layer_1" data-name="Layer 1" xmlns="http://www.w3.org/2000/svg" viewBox="0 0 233.81 367.76">
  <defs>
    <style>
      .cls-1 {
        fill: #531b23;
      }
    </style>
  </defs>
  <path class="cls-1" d="M191.92,193.37V35.29l-5.07,16.02c-7.9,17.87-22.35,28.56-35.86,40.48l-.17,133.33c-.48,6.86-2.55,17.28-6.66,22.47-4.53,5.73-29.65,20.72-36.26,18.44-8.22-2.84-4.88-19.94-4.85-25.9.11-20.1-.05-40.07,0-60.01.04-18.27-.14-36.56-.06-54.81-24.08,11.23-38.18,34.24-39.88,63.68-2.11,36.64,1.37,75.88.32,112.97-.45,2.18-.37,4.47-.39,6.83-.12,12.37-.99,24.03-3.27,36.19.24-1.28,10.53-5.52,12.49-6.56,3.97-2.12,7.94-4.24,11.92-6.36,4.12-2.2,8.24-4.4,12.36-6.59,9.3-3.69,18.05-9.52,26.6-14.62,11.78-7.03,23.45-14.28,34.82-21.95,16.2-10.93,28.23-25.85,32.64-45.2.39-1.71.71-3.43.98-5.17,2.27-14.8.36-30.31.36-45.15Z"/>
</svg>